<svg id="svg" version="1.1" xmlns="http://www.w3.org/2000/svg" xmlns:xlink="http://www.w3.org/1999/xlink" width="400" height="400" viewBox="0, 0, 400,400"><g id="svgg"><path id="path0" d="M109.354 200.891 C 107.241 202.523,105.990 204.174,102.450 210.000 C 96.108 220.434,80.330 256.254,74.786 272.800 C 74.381 274.010,73.127 277.610,72.000 280.800 C 69.725 287.239,67.830 292.870,66.214 298.000 C 65.625 299.870,64.601 303.110,63.939 305.200 C 62.718 309.057,62.332 310.416,60.533 317.200 C 59.393 321.495,59.269 322.026,57.898 328.400 C 56.741 333.784,56.112 338.045,55.760 342.890 C 55.600 345.104,55.305 346.547,54.954 346.839 C 54.310 347.373,54.174 351.600,54.800 351.600 C 55.022 351.600,55.200 352.667,55.200 354.000 C 55.200 355.333,55.378 356.400,55.600 356.400 C 55.820 356.400,56.000 357.120,56.000 358.000 C 56.000 358.880,56.180 359.600,56.400 359.600 C 56.620 359.600,56.800 360.129,56.800 360.776 C 56.800 361.423,56.980 362.064,57.200 362.200 C 57.420 362.336,57.600 362.887,57.600 363.424 C 57.600 363.961,57.780 364.400,58.000 364.400 C 58.220 364.400,58.400 364.762,58.400 365.205 C 58.400 365.648,58.560 366.323,58.755 366.705 C 58.950 367.087,59.880 368.975,60.821 370.900 C 61.762 372.825,62.693 374.400,62.890 374.400 C 63.086 374.400,63.148 374.561,63.026 374.758 C 62.904 374.955,63.074 375.219,63.402 375.346 C 63.731 375.472,64.000 375.851,64.000 376.187 C 64.000 376.524,64.191 376.800,64.424 376.800 C 64.657 376.800,64.748 376.960,64.628 377.155 C 64.507 377.351,65.126 378.140,66.004 378.910 C 66.882 379.679,67.600 380.497,67.600 380.727 C 67.600 381.270,73.340 387.064,75.406 388.605 C 76.282 389.260,77.104 389.938,77.232 390.112 C 77.527 390.513,79.978 391.947,80.900 392.258 C 81.285 392.387,81.600 392.652,81.600 392.847 C 81.600 393.041,81.960 393.200,82.400 393.200 C 82.840 393.200,83.200 393.346,83.200 393.525 C 83.200 393.704,83.830 394.098,84.600 394.400 C 85.370 394.702,86.000 395.096,86.000 395.275 C 86.000 395.454,86.450 395.600,87.000 395.600 C 87.550 395.600,88.000 395.780,88.000 396.000 C 88.000 396.220,88.360 396.400,88.800 396.400 C 89.240 396.400,89.600 396.580,89.600 396.800 C 89.600 397.020,90.140 397.200,90.800 397.200 C 91.460 397.200,92.000 397.380,92.000 397.600 C 92.000 397.820,92.540 398.000,93.200 398.000 C 93.860 398.000,94.400 398.180,94.400 398.400 C 94.400 398.620,94.994 398.800,95.720 398.800 C 96.446 398.800,97.265 399.025,97.540 399.300 C 97.920 399.680,101.223 399.800,111.287 399.800 C 121.528 399.800,124.571 399.687,124.700 399.300 C 124.792 399.025,125.482 398.800,126.233 398.800 C 126.985 398.800,127.600 398.620,127.600 398.400 C 127.600 398.180,128.140 398.000,128.800 398.000 C 129.460 398.000,130.000 397.820,130.000 397.600 C 130.000 397.380,130.540 397.200,131.200 397.200 C 131.860 397.200,132.400 397.020,132.400 396.800 C 132.400 396.580,132.665 396.400,132.988 396.400 C 133.311 396.400,134.217 396.040,135.000 395.600 C 135.783 395.160,136.689 394.800,137.012 394.800 C 137.335 394.800,137.600 394.620,137.600 394.400 C 137.600 394.180,137.872 394.000,138.205 394.000 C 139.383 394.000,142.800 391.327,142.800 390.406 C 142.800 390.235,143.835 389.317,145.100 388.365 C 158.957 377.936,166.876 361.182,166.257 343.600 C 165.942 334.635,165.354 330.938,162.442 319.600 C 161.792 317.070,160.972 313.920,160.620 312.600 C 159.911 309.946,157.042 300.485,156.374 298.600 C 156.140 297.940,154.412 292.900,152.533 287.400 C 147.055 271.356,140.221 253.225,136.964 246.088 C 136.434 244.927,136.000 243.896,136.000 243.798 C 136.000 243.700,135.460 242.441,134.800 241.000 C 134.140 239.559,133.600 238.300,133.600 238.202 C 133.600 238.036,133.112 236.929,130.646 231.500 C 119.493 206.944,113.210 197.912,109.354 200.891 " stroke="none" fill="#5cabeb" fill-rule="evenodd"></path><path id="path1" d="M13.054 0.257 C 12.364 0.460,9.818 3.038,9.786 3.567 C 9.778 3.695,9.554 4.192,9.287 4.671 C 9.021 5.150,8.911 5.825,9.044 6.171 C 9.177 6.517,9.086 6.800,8.843 6.800 C 8.599 6.800,8.400 7.160,8.400 7.600 C 8.400 8.040,8.265 8.401,8.100 8.403 C 7.657 8.408,6.800 10.421,6.800 11.456 C 6.800 11.949,6.620 12.464,6.400 12.600 C 6.180 12.736,6.000 13.366,6.000 14.000 C 6.000 14.634,5.820 15.264,5.600 15.400 C 5.380 15.536,5.200 16.346,5.200 17.200 C 5.200 18.054,5.020 18.864,4.800 19.000 C 4.580 19.136,4.400 20.126,4.400 21.200 C 4.400 22.274,4.220 23.264,4.000 23.400 C 3.780 23.536,3.600 24.976,3.600 26.600 C 3.600 28.224,3.420 29.664,3.200 29.800 C 2.654 30.138,2.654 56.262,3.200 56.600 C 3.429 56.742,3.600 58.804,3.600 61.424 C 3.600 64.208,3.757 66.000,4.000 66.000 C 4.231 66.000,4.400 67.259,4.400 68.976 C 4.400 70.613,4.580 72.064,4.800 72.200 C 5.020 72.336,5.200 73.686,5.200 75.200 C 5.200 76.714,5.380 78.064,5.600 78.200 C 5.820 78.336,6.000 79.416,6.000 80.600 C 6.000 81.784,6.180 82.864,6.400 83.000 C 6.620 83.136,6.800 84.216,6.800 85.400 C 6.800 86.584,6.980 87.664,7.200 87.800 C 7.420 87.936,7.600 88.847,7.600 89.824 C 7.600 90.801,7.763 91.600,7.963 91.600 C 8.163 91.600,8.433 92.635,8.563 93.900 C 8.694 95.165,8.855 96.740,8.922 97.400 C 8.989 98.060,9.168 99.050,9.320 99.600 C 9.472 100.150,9.683 101.230,9.789 102.000 C 9.895 102.770,10.177 104.300,10.417 105.400 C 10.656 106.500,10.949 108.120,11.067 109.000 C 11.185 109.880,11.444 110.771,11.641 110.980 C 11.838 111.189,12.000 111.954,12.000 112.680 C 12.000 113.406,12.180 114.000,12.400 114.000 C 12.620 114.000,12.800 114.709,12.800 115.576 C 12.800 116.443,12.980 117.264,13.200 117.400 C 13.420 117.536,13.600 118.179,13.600 118.829 C 13.600 119.479,13.762 120.323,13.961 120.705 C 14.160 121.087,14.532 122.210,14.788 123.200 C 15.044 124.190,15.422 125.553,15.627 126.228 C 15.832 126.904,16.000 127.849,16.000 128.328 C 16.000 128.808,16.180 129.200,16.400 129.200 C 16.620 129.200,16.800 129.920,16.800 130.800 C 16.800 131.680,16.980 132.400,17.200 132.400 C 17.420 132.400,17.600 132.929,17.600 133.576 C 17.600 134.223,17.780 134.864,18.000 135.000 C 18.220 135.136,18.400 135.867,18.400 136.624 C 18.400 137.381,18.580 138.000,18.800 138.000 C 19.020 138.000,19.200 138.630,19.200 139.400 C 19.200 140.170,19.380 140.800,19.600 140.800 C 19.820 140.800,20.000 141.162,20.000 141.605 C 20.000 142.048,20.209 142.746,20.466 143.156 C 20.902 143.856,19.932 146.570,17.984 150.095 C 17.773 150.477,17.600 151.062,17.600 151.395 C 17.600 151.728,17.420 152.000,17.200 152.000 C 16.980 152.000,16.800 152.360,16.800 152.800 C 16.800 153.240,16.653 153.600,16.472 153.600 C 16.292 153.600,15.900 154.500,15.600 155.600 C 15.300 156.700,14.908 157.600,14.728 157.600 C 14.547 157.600,14.400 158.050,14.400 158.600 C 14.400 159.150,14.220 159.600,14.000 159.600 C 13.780 159.600,13.600 160.039,13.600 160.576 C 13.600 161.113,13.420 161.664,13.200 161.800 C 12.980 161.936,12.800 162.476,12.800 163.000 C 12.800 163.524,12.620 164.064,12.400 164.200 C 12.180 164.336,12.000 164.977,12.000 165.624 C 12.000 166.271,11.820 166.800,11.600 166.800 C 11.380 166.800,11.200 167.329,11.200 167.976 C 11.200 168.623,11.020 169.264,10.800 169.400 C 10.580 169.536,10.400 170.256,10.400 171.000 C 10.400 171.744,10.248 172.447,10.061 172.562 C 9.875 172.677,9.707 173.307,9.689 173.961 C 9.670 174.615,9.453 175.528,9.205 175.990 C 8.958 176.452,8.863 177.168,8.994 177.581 C 9.125 177.995,9.045 178.448,8.816 178.590 C 8.587 178.731,8.400 179.557,8.400 180.424 C 8.400 181.291,8.220 182.000,8.000 182.000 C 7.780 182.000,7.600 182.810,7.600 183.800 C 7.600 184.790,7.420 185.600,7.200 185.600 C 6.980 185.600,6.800 186.500,6.800 187.600 C 6.800 188.700,6.620 189.600,6.400 189.600 C 6.178 189.600,6.000 190.659,6.000 191.976 C 6.000 193.283,5.820 194.464,5.600 194.600 C 5.380 194.736,5.200 196.097,5.200 197.624 C 5.200 199.208,5.028 200.400,4.800 200.400 C 4.567 200.400,4.400 201.733,4.400 203.600 C 4.400 205.360,4.237 206.800,4.039 206.800 C 3.840 206.800,3.615 207.702,3.539 208.805 C 3.400 210.805,4.063 211.703,5.171 211.018 C 6.059 210.469,17.014 208.421,23.200 207.646 C 33.275 206.386,36.118 206.226,48.000 206.254 C 65.897 206.297,78.710 207.725,94.200 211.404 L 100.200 212.829 101.000 211.850 C 101.440 211.312,102.700 209.370,103.800 207.536 C 108.293 200.042,111.034 198.569,114.283 201.900 C 116.674 204.350,125.200 217.957,125.200 219.322 C 125.200 219.420,126.260 221.728,127.555 224.450 C 129.919 229.417,136.000 243.061,136.000 243.397 C 136.000 243.496,136.436 244.530,136.969 245.695 C 137.502 246.860,138.322 248.786,138.790 249.975 C 139.258 251.163,139.982 252.883,140.398 253.795 C 140.814 254.708,141.417 256.163,141.738 257.028 C 142.059 257.892,142.985 260.310,143.796 262.400 C 145.810 267.592,152.265 285.736,154.575 292.700 C 155.615 295.835,156.554 298.400,156.661 298.400 C 156.768 298.400,157.609 297.882,158.530 297.248 C 159.451 296.615,160.878 295.715,161.702 295.248 C 162.526 294.782,163.875 294.006,164.700 293.524 C 203.191 271.047,246.205 287.324,279.592 337.000 C 280.332 338.100,281.536 339.676,282.268 340.501 C 287.588 346.497,278.474 353.626,272.407 348.214 C 271.568 347.466,262.490 342.864,258.600 341.216 C 256.840 340.470,254.320 339.382,253.000 338.798 C 247.988 336.583,237.123 333.172,231.400 332.017 C 219.922 329.701,214.217 328.934,202.800 328.172 C 195.538 327.687,173.585 330.307,166.854 332.462 C 165.550 332.879,165.515 332.945,165.749 334.546 C 168.881 355.994,162.257 374.447,146.858 387.172 C 142.345 390.901,141.833 391.600,143.613 391.600 C 144.266 391.600,144.800 391.780,144.800 392.000 C 144.800 392.220,145.520 392.400,146.400 392.400 C 147.280 392.400,148.000 392.580,148.000 392.800 C 148.000 393.020,148.720 393.200,149.600 393.200 C 150.480 393.200,151.200 393.380,151.200 393.600 C 151.200 393.820,151.920 394.000,152.800 394.000 C 153.680 394.000,154.400 394.180,154.400 394.400 C 154.400 394.620,155.120 394.800,156.000 394.800 C 156.880 394.800,157.600 394.980,157.600 395.200 C 157.600 395.420,158.500 395.600,159.600 395.600 C 160.700 395.600,161.600 395.780,161.600 396.000 C 161.600 396.220,162.590 396.400,163.800 396.400 C 165.010 396.400,166.000 396.580,166.000 396.800 C 166.000 397.020,166.889 397.200,167.976 397.200 C 169.063 397.200,170.064 397.380,170.200 397.600 C 170.336 397.820,171.427 398.000,172.624 398.000 C 173.821 398.000,174.800 398.180,174.800 398.400 C 174.800 398.627,175.973 398.800,177.520 398.800 C 179.163 398.800,180.438 398.998,180.740 399.300 C 181.126 399.686,185.525 399.800,200.000 399.800 C 214.475 399.800,218.874 399.686,219.260 399.300 C 219.562 398.998,220.837 398.800,222.480 398.800 C 224.027 398.800,225.200 398.627,225.200 398.400 C 225.200 398.180,226.179 398.000,227.376 398.000 C 228.573 398.000,229.664 397.820,229.800 397.600 C 229.936 397.380,230.937 397.200,232.024 397.200 C 233.111 397.200,234.000 397.020,234.000 396.800 C 234.000 396.580,234.990 396.400,236.200 396.400 C 237.410 396.400,238.400 396.220,238.400 396.000 C 238.400 395.780,239.199 395.600,240.176 395.600 C 241.153 395.600,242.064 395.420,242.200 395.200 C 242.336 394.980,243.157 394.800,244.024 394.800 C 244.891 394.800,245.600 394.620,245.600 394.400 C 245.600 394.180,246.320 394.000,247.200 394.000 C 248.080 394.000,248.800 393.820,248.800 393.600 C 248.800 393.380,249.419 393.200,250.176 393.200 C 250.933 393.200,251.664 393.020,251.800 392.800 C 251.936 392.580,252.757 392.400,253.624 392.400 C 254.491 392.400,255.200 392.245,255.200 392.055 C 255.200 391.865,256.235 391.590,257.500 391.442 C 259.800 391.174,261.987 390.611,263.295 389.951 C 263.677 389.758,264.442 389.600,264.995 389.600 C 265.548 389.600,266.000 389.420,266.000 389.200 C 266.000 388.980,266.619 388.800,267.376 388.800 C 268.133 388.800,268.864 388.620,269.000 388.400 C 269.136 388.180,269.651 388.000,270.144 388.000 C 270.637 388.000,271.211 387.847,271.420 387.659 C 271.629 387.471,272.660 387.087,273.710 386.804 C 274.761 386.521,275.717 386.135,275.834 385.945 C 275.951 385.755,276.577 385.600,277.224 385.600 C 277.871 385.600,278.400 385.459,278.400 385.287 C 278.400 385.115,278.895 384.934,279.500 384.884 C 280.105 384.834,280.660 384.615,280.733 384.397 C 280.807 384.178,281.392 384.000,282.033 384.000 C 282.675 384.000,283.200 383.820,283.200 383.600 C 283.200 383.380,283.639 383.200,284.176 383.200 C 284.713 383.200,285.264 383.020,285.400 382.800 C 285.536 382.580,285.997 382.400,286.424 382.400 C 286.851 382.400,287.200 382.220,287.200 382.000 C 287.200 381.780,287.555 381.600,287.988 381.600 C 288.421 381.600,289.417 381.240,290.200 380.800 C 290.983 380.360,291.979 380.000,292.412 380.000 C 292.845 380.000,293.200 379.820,293.200 379.600 C 293.200 379.380,293.560 379.200,294.000 379.200 C 294.440 379.200,294.800 379.020,294.800 378.800 C 294.800 378.580,295.155 378.400,295.588 378.400 C 296.021 378.400,297.017 378.040,297.800 377.600 C 298.583 377.160,299.489 376.800,299.812 376.800 C 300.135 376.800,300.400 376.664,300.400 376.498 C 300.400 376.332,301.525 375.767,302.900 375.243 C 304.275 374.719,305.715 374.017,306.100 373.683 C 306.485 373.349,306.803 373.239,306.806 373.438 C 306.809 373.637,306.963 373.563,307.146 373.273 C 307.330 372.984,307.732 372.687,308.040 372.615 C 309.502 372.269,310.400 371.878,310.400 371.586 C 310.400 371.410,311.216 370.955,312.213 370.574 C 313.211 370.193,314.156 369.683,314.313 369.441 C 314.471 369.198,315.275 368.688,316.100 368.306 C 316.925 367.925,317.600 367.430,317.600 367.206 C 317.600 366.983,317.960 366.800,318.400 366.800 C 318.840 366.800,319.200 366.620,319.200 366.400 C 319.200 366.180,319.436 366.000,319.725 366.000 C 320.013 366.000,320.598 365.685,321.025 365.300 C 321.451 364.915,322.340 364.331,323.000 364.003 C 323.660 363.674,324.491 363.089,324.847 362.703 C 325.203 362.316,325.699 362.000,325.951 362.000 C 326.202 362.000,326.972 361.460,327.663 360.800 C 328.354 360.140,329.162 359.600,329.459 359.600 C 329.757 359.600,330.000 359.438,330.000 359.239 C 330.000 359.041,330.495 358.703,331.100 358.488 C 331.705 358.274,332.704 357.626,333.321 357.049 C 333.937 356.472,334.610 356.000,334.817 356.000 C 335.386 356.000,339.400 352.899,340.900 351.300 C 341.364 350.805,341.939 350.400,342.176 350.400 C 342.413 350.400,343.576 349.500,344.760 348.400 C 345.944 347.300,347.168 346.400,347.480 346.400 C 347.792 346.400,347.936 346.220,347.800 346.000 C 347.664 345.780,347.721 345.600,347.927 345.600 C 348.550 345.600,360.388 334.487,360.396 333.894 C 360.402 333.430,367.129 326.800,367.594 326.800 C 367.817 326.800,368.000 326.620,368.000 326.400 C 368.000 326.180,368.179 326.000,368.397 326.000 C 368.894 326.000,376.800 318.022,376.800 317.520 C 376.800 317.318,376.980 317.264,377.200 317.400 C 377.420 317.536,377.600 317.356,377.600 317.000 C 377.600 316.644,377.780 316.464,378.000 316.600 C 378.220 316.736,378.400 316.567,378.400 316.224 C 378.400 315.881,378.580 315.600,378.800 315.600 C 379.020 315.600,379.200 315.423,379.200 315.207 C 379.200 314.991,380.010 313.969,381.000 312.935 C 381.990 311.902,382.800 310.917,382.800 310.747 C 382.800 310.576,383.227 310.009,383.749 309.488 C 384.271 308.966,384.919 308.126,385.189 307.621 C 385.459 307.116,386.132 306.196,386.685 305.575 C 387.238 304.954,387.967 303.941,388.304 303.323 C 390.563 299.188,391.598 296.856,391.599 295.900 C 391.599 295.295,391.780 294.800,392.000 294.800 C 392.220 294.800,392.400 294.260,392.400 293.600 C 392.400 292.940,392.580 292.400,392.800 292.400 C 393.020 292.400,393.200 291.770,393.200 291.000 C 393.200 290.230,393.380 289.600,393.600 289.600 C 393.820 289.600,394.000 288.880,394.000 288.000 C 394.000 287.120,394.180 286.400,394.400 286.400 C 394.620 286.400,394.800 285.680,394.800 284.800 C 394.800 283.920,394.980 283.200,395.200 283.200 C 395.422 283.200,395.600 282.133,395.600 280.800 C 395.600 279.467,395.778 278.400,396.000 278.400 C 396.220 278.400,396.400 278.159,396.400 277.864 C 396.400 277.458,395.643 277.336,393.300 277.364 L 390.200 277.400 385.202 274.247 C 358.182 257.201,325.899 249.007,288.560 249.718 L 276.120 249.955 274.675 248.973 C 272.077 247.208,271.709 243.211,273.921 240.779 C 275.493 239.051,277.442 238.791,290.800 238.522 C 325.420 237.826,356.205 245.104,384.200 260.605 C 388.551 263.014,395.761 267.689,396.186 268.378 C 396.654 269.134,397.200 268.823,397.200 267.800 C 397.200 267.250,397.380 266.800,397.600 266.800 C 397.840 266.800,398.000 265.200,398.000 262.800 C 398.000 260.400,398.160 258.800,398.400 258.800 C 398.660 258.800,398.800 253.467,398.800 243.600 C 398.800 233.733,398.660 228.400,398.400 228.400 C 397.789 228.400,397.885 222.512,398.500 222.267 C 398.775 222.158,397.560 222.074,395.800 222.080 C 393.835 222.088,391.288 221.765,389.200 221.243 C 363.472 214.818,329.680 216.281,297.600 225.208 C 292.061 226.749,288.410 224.944,288.403 220.660 C 288.395 216.267,290.984 214.890,305.800 211.404 C 308.220 210.835,310.920 210.200,311.800 209.993 C 313.340 209.630,320.546 208.499,326.800 207.637 C 346.394 204.938,370.847 205.851,390.800 210.027 C 396.617 211.244,396.181 211.333,396.321 208.900 C 396.395 207.621,396.277 206.800,396.021 206.800 C 395.761 206.800,395.600 205.573,395.600 203.600 C 395.600 201.733,395.433 200.400,395.200 200.400 C 394.972 200.400,394.800 199.208,394.800 197.624 C 394.800 196.097,394.620 194.736,394.400 194.600 C 394.180 194.464,394.000 193.283,394.000 191.976 C 394.000 190.659,393.822 189.600,393.600 189.600 C 393.380 189.600,393.200 188.700,393.200 187.600 C 393.200 186.500,393.020 185.600,392.800 185.600 C 392.580 185.600,392.400 184.790,392.400 183.800 C 392.400 182.810,392.256 182.000,392.079 182.000 C 391.903 182.000,391.569 180.695,391.337 179.100 C 391.105 177.505,390.620 175.156,390.258 173.880 C 389.896 172.605,389.600 171.130,389.600 170.604 C 389.600 170.078,389.420 169.536,389.200 169.400 C 388.980 169.264,388.800 168.724,388.800 168.200 C 388.800 167.676,388.620 167.136,388.400 167.000 C 388.180 166.864,388.000 166.234,388.000 165.600 C 388.000 164.966,387.820 164.336,387.600 164.200 C 387.380 164.064,387.200 163.524,387.200 163.000 C 387.200 162.476,387.020 161.936,386.800 161.800 C 386.580 161.664,386.394 161.158,386.387 160.676 C 386.380 160.194,386.116 159.458,385.800 159.041 C 385.484 158.624,385.320 158.129,385.436 157.941 C 385.552 157.753,385.489 157.600,385.296 157.600 C 385.103 157.600,384.700 156.700,384.400 155.600 C 384.100 154.500,383.708 153.600,383.528 153.600 C 383.347 153.600,383.200 153.240,383.200 152.800 C 383.200 152.360,383.020 152.000,382.800 152.000 C 382.580 152.000,382.400 151.728,382.400 151.395 C 382.400 151.062,382.227 150.477,382.016 150.095 C 380.068 146.570,379.098 143.856,379.534 143.156 C 379.791 142.746,380.000 142.048,380.000 141.605 C 380.000 141.162,380.180 140.800,380.400 140.800 C 380.620 140.800,380.800 140.170,380.800 139.400 C 380.800 138.630,380.961 138.000,381.158 138.000 C 381.355 138.000,381.615 137.325,381.735 136.500 C 382.151 133.659,382.492 132.400,382.845 132.400 C 383.040 132.400,383.200 131.680,383.200 130.800 C 383.200 129.920,383.360 129.200,383.556 129.200 C 383.752 129.200,384.022 128.570,384.156 127.800 C 384.290 127.030,384.510 125.770,384.644 125.000 C 384.778 124.230,385.048 123.600,385.244 123.600 C 385.440 123.600,385.600 122.891,385.600 122.024 C 385.600 121.157,385.780 120.336,386.000 120.200 C 386.220 120.064,386.400 119.434,386.400 118.800 C 386.400 118.166,386.561 117.548,386.758 117.426 C 386.955 117.305,387.218 116.529,387.342 115.703 C 387.872 112.193,388.108 111.180,388.444 110.973 C 388.640 110.852,388.800 109.964,388.800 109.000 C 388.800 108.036,388.961 107.148,389.158 107.026 C 389.499 106.815,389.743 105.609,390.256 101.600 C 390.382 100.610,390.630 99.620,390.807 99.400 C 390.983 99.180,391.257 97.335,391.415 95.300 C 391.574 93.265,391.860 91.600,392.052 91.600 C 392.243 91.600,392.400 90.801,392.400 89.824 C 392.400 88.847,392.580 87.936,392.800 87.800 C 393.020 87.664,393.200 86.584,393.200 85.400 C 393.200 84.216,393.380 83.136,393.600 83.000 C 393.820 82.864,394.000 81.773,394.000 80.576 C 394.000 79.379,394.180 78.400,394.400 78.400 C 394.631 78.400,394.800 77.133,394.800 75.400 C 394.800 73.667,394.969 72.400,395.200 72.400 C 395.433 72.400,395.600 71.075,395.600 69.224 C 395.600 67.477,395.780 65.936,396.000 65.800 C 396.227 65.660,396.400 63.663,396.400 61.176 C 396.400 58.525,396.558 56.800,396.800 56.800 C 397.059 56.800,397.200 52.075,397.200 43.424 C 397.200 34.937,397.054 29.957,396.800 29.800 C 396.580 29.664,396.400 28.224,396.400 26.600 C 396.400 24.976,396.220 23.536,396.000 23.400 C 395.780 23.264,395.600 22.274,395.600 21.200 C 395.600 20.126,395.420 19.136,395.200 19.000 C 394.980 18.864,394.800 18.054,394.800 17.200 C 394.800 16.346,394.620 15.536,394.400 15.400 C 394.180 15.264,394.000 14.544,394.000 13.800 C 394.000 13.056,393.820 12.336,393.600 12.200 C 393.380 12.064,393.200 11.601,393.200 11.171 C 393.200 10.424,392.478 8.822,391.950 8.400 C 391.813 8.290,391.568 7.589,391.406 6.843 C 390.917 4.593,390.140 3.065,388.735 1.595 L 387.400 0.200 378.031 0.207 C 370.963 0.211,368.622 0.334,368.498 0.707 C 368.397 1.008,367.575 1.200,366.390 1.200 C 365.322 1.200,364.336 1.380,364.200 1.600 C 364.064 1.820,363.434 2.000,362.800 2.000 C 362.166 2.000,361.536 2.180,361.400 2.400 C 361.264 2.620,360.634 2.800,360.000 2.800 C 359.366 2.800,358.736 2.980,358.600 3.200 C 358.464 3.420,357.823 3.600,357.176 3.600 C 356.529 3.600,356.000 3.780,356.000 4.000 C 356.000 4.220,355.460 4.400,354.800 4.400 C 354.140 4.400,353.600 4.580,353.600 4.800 C 353.600 5.020,353.060 5.200,352.400 5.200 C 351.740 5.200,351.200 5.380,351.200 5.600 C 351.200 5.820,350.660 6.000,350.000 6.000 C 349.340 6.000,348.800 6.180,348.800 6.400 C 348.800 6.620,348.260 6.800,347.600 6.800 C 346.940 6.800,346.399 6.935,346.397 7.100 C 346.393 7.476,344.450 8.395,343.620 8.414 C 343.279 8.421,342.283 8.766,341.408 9.180 C 340.532 9.594,339.689 9.855,339.535 9.760 C 339.381 9.665,339.142 9.770,339.004 9.993 C 338.866 10.217,338.403 10.400,337.976 10.400 C 337.549 10.400,337.200 10.536,337.200 10.702 C 337.200 11.023,336.441 11.368,332.600 12.790 C 329.713 13.858,328.430 14.376,327.505 14.847 C 327.123 15.041,326.538 15.200,326.205 15.200 C 325.872 15.200,325.600 15.380,325.600 15.600 C 325.600 15.820,325.251 16.000,324.824 16.000 C 324.397 16.000,323.936 16.180,323.800 16.400 C 323.664 16.620,323.203 16.800,322.776 16.800 C 322.349 16.800,322.000 16.936,322.000 17.102 C 322.000 17.269,321.415 17.644,320.700 17.937 C 318.340 18.902,315.802 20.195,315.667 20.500 C 315.593 20.665,315.295 20.800,315.004 20.800 C 314.363 20.800,311.053 22.480,310.867 22.900 C 310.793 23.065,310.388 23.200,309.967 23.200 C 309.545 23.200,309.200 23.380,309.200 23.600 C 309.200 23.820,308.840 24.000,308.400 24.000 C 307.960 24.000,307.600 24.180,307.600 24.400 C 307.600 24.620,307.240 24.800,306.800 24.800 C 306.360 24.800,306.000 24.936,306.000 25.102 C 306.000 25.269,305.145 25.811,304.100 26.308 C 303.055 26.805,301.480 27.658,300.600 28.203 C 299.720 28.749,298.550 29.414,298.000 29.682 C 296.520 30.402,292.221 33.293,292.067 33.672 C 291.993 33.853,291.588 34.000,291.167 34.000 C 290.745 34.000,290.400 34.180,290.400 34.400 C 290.400 34.620,290.080 34.800,289.688 34.800 C 289.297 34.800,288.717 35.160,288.400 35.600 C 288.083 36.040,287.543 36.400,287.200 36.400 C 286.857 36.400,286.317 36.760,286.000 37.200 C 285.683 37.640,285.143 38.000,284.800 38.000 C 284.457 38.000,283.917 38.360,283.600 38.800 C 283.283 39.240,282.820 39.600,282.571 39.600 C 282.322 39.600,281.554 40.140,280.863 40.800 C 280.172 41.460,279.358 42.000,279.053 42.000 C 278.748 42.000,278.271 42.274,277.993 42.609 C 277.667 43.002,277.187 43.121,276.644 42.944 C 275.746 42.653,275.141 42.560,271.493 42.156 C 270.224 42.015,269.088 41.742,268.969 41.550 C 268.850 41.357,267.773 41.200,266.576 41.200 C 265.379 41.200,264.400 41.020,264.400 40.800 C 264.400 40.580,263.500 40.400,262.400 40.400 C 261.300 40.400,260.400 40.220,260.400 40.000 C 260.400 39.780,259.601 39.600,258.624 39.600 C 257.647 39.600,256.736 39.420,256.600 39.200 C 256.464 38.980,255.553 38.800,254.576 38.800 C 253.599 38.800,252.800 38.620,252.800 38.400 C 252.800 38.180,251.900 38.000,250.800 38.000 C 249.700 38.000,248.800 37.820,248.800 37.600 C 248.800 37.380,247.821 37.200,246.624 37.200 C 245.427 37.200,244.336 37.020,244.200 36.800 C 244.064 36.580,242.973 36.400,241.776 36.400 C 240.579 36.400,239.600 36.220,239.600 36.000 C 239.600 35.772,238.408 35.600,236.824 35.600 C 235.297 35.600,233.936 35.420,233.800 35.200 C 233.664 34.980,232.404 34.800,231.000 34.800 C 229.596 34.800,228.336 34.620,228.200 34.400 C 228.063 34.178,226.223 34.000,224.056 34.000 C 221.913 34.000,219.989 33.839,219.780 33.643 C 219.340 33.230,205.597 32.289,200.000 32.289 C 194.403 32.289,180.660 33.230,180.220 33.643 C 180.011 33.839,178.087 34.000,175.944 34.000 C 173.777 34.000,171.937 34.178,171.800 34.400 C 171.664 34.620,170.393 34.800,168.976 34.800 C 167.525 34.800,166.400 34.975,166.400 35.200 C 166.400 35.428,165.208 35.600,163.624 35.600 C 162.097 35.600,160.736 35.780,160.600 36.000 C 160.464 36.220,159.384 36.400,158.200 36.400 C 157.016 36.400,155.936 36.580,155.800 36.800 C 155.664 37.020,154.573 37.200,153.376 37.200 C 152.179 37.200,151.200 37.380,151.200 37.600 C 151.200 37.820,150.401 38.000,149.424 38.000 C 148.447 38.000,147.536 38.180,147.400 38.400 C 147.264 38.620,146.364 38.800,145.400 38.800 C 144.436 38.800,143.536 38.980,143.400 39.200 C 143.264 39.420,142.353 39.600,141.376 39.600 C 140.399 39.600,139.600 39.780,139.600 40.000 C 139.600 40.220,138.700 40.400,137.600 40.400 C 136.500 40.400,135.600 40.580,135.600 40.800 C 135.600 41.020,134.621 41.200,133.424 41.200 C 132.227 41.200,131.150 41.357,131.031 41.550 C 130.912 41.742,129.776 42.015,128.507 42.156 C 125.589 42.479,124.412 42.672,123.372 42.997 C 122.848 43.161,122.353 43.025,122.023 42.628 C 121.737 42.283,121.236 42.000,120.912 42.000 C 120.587 42.000,119.817 41.460,119.200 40.800 C 118.583 40.140,117.831 39.600,117.528 39.600 C 117.225 39.600,116.717 39.240,116.400 38.800 C 116.083 38.360,115.543 38.000,115.200 38.000 C 114.857 38.000,114.317 37.640,114.000 37.200 C 113.683 36.760,113.186 36.400,112.895 36.400 C 112.604 36.400,111.980 36.040,111.508 35.600 C 111.036 35.160,110.413 34.800,110.125 34.800 C 109.836 34.800,109.600 34.620,109.600 34.400 C 109.600 34.180,109.255 34.000,108.833 34.000 C 108.412 34.000,108.007 33.853,107.933 33.672 C 107.769 33.268,102.967 30.003,102.522 29.993 C 102.345 29.989,101.413 29.452,100.450 28.800 C 99.488 28.147,98.003 27.306,97.150 26.930 C 96.298 26.554,95.600 26.101,95.600 25.923 C 95.600 25.745,95.240 25.600,94.800 25.600 C 94.360 25.600,94.000 25.420,94.000 25.200 C 94.000 24.980,93.640 24.800,93.200 24.800 C 92.760 24.800,92.400 24.620,92.400 24.400 C 92.400 24.180,92.040 24.000,91.600 24.000 C 91.160 24.000,90.800 23.820,90.800 23.600 C 90.800 23.380,90.440 23.200,90.000 23.200 C 89.560 23.200,89.199 23.065,89.197 22.900 C 89.193 22.549,87.263 21.600,86.554 21.600 C 86.286 21.600,86.007 21.456,85.933 21.281 C 85.772 20.896,79.062 17.600,78.439 17.600 C 78.198 17.600,78.000 17.420,78.000 17.200 C 78.000 16.980,77.651 16.800,77.224 16.800 C 76.797 16.800,76.336 16.620,76.200 16.400 C 76.064 16.180,75.603 16.000,75.176 16.000 C 74.749 16.000,74.400 15.820,74.400 15.600 C 74.400 15.380,74.128 15.200,73.796 15.200 C 73.274 15.200,70.724 14.197,68.800 13.235 C 68.470 13.070,67.345 12.685,66.300 12.380 C 65.255 12.075,64.400 11.685,64.400 11.513 C 64.400 11.341,64.040 11.200,63.600 11.200 C 63.160 11.200,62.800 11.020,62.800 10.800 C 62.800 10.580,62.451 10.400,62.024 10.400 C 61.597 10.400,61.134 10.217,60.996 9.993 C 60.858 9.770,60.619 9.665,60.465 9.760 C 60.311 9.855,59.468 9.594,58.592 9.180 C 57.717 8.766,56.721 8.421,56.380 8.414 C 55.550 8.395,53.607 7.476,53.603 7.100 C 53.601 6.935,53.060 6.800,52.400 6.800 C 51.740 6.800,51.200 6.620,51.200 6.400 C 51.200 6.180,50.660 6.000,50.000 6.000 C 49.340 6.000,48.800 5.820,48.800 5.600 C 48.800 5.380,48.260 5.200,47.600 5.200 C 46.940 5.200,46.400 5.020,46.400 4.800 C 46.400 4.580,45.860 4.400,45.200 4.400 C 44.540 4.400,44.000 4.220,44.000 4.000 C 44.000 3.780,43.471 3.600,42.824 3.600 C 42.177 3.600,41.536 3.420,41.400 3.200 C 41.264 2.980,40.533 2.800,39.776 2.800 C 39.019 2.800,38.400 2.620,38.400 2.400 C 38.400 2.180,37.781 2.000,37.024 2.000 C 36.267 2.000,35.536 1.820,35.400 1.600 C 35.264 1.380,34.368 1.200,33.410 1.200 C 32.451 1.200,31.598 0.994,31.514 0.742 C 31.354 0.261,14.544 -0.180,13.054 0.257 M136.818 89.306 C 146.150 92.559,147.437 105.937,138.794 109.850 C 136.287 110.985,135.332 111.203,131.107 111.603 C 107.405 113.847,82.838 128.114,66.234 149.278 C 59.355 158.047,49.788 158.063,45.414 149.313 C 41.992 142.467,47.665 133.222,64.439 118.308 C 72.667 110.992,88.595 100.000,90.969 100.000 C 91.105 100.000,92.761 99.280,94.648 98.400 C 96.535 97.520,98.208 96.800,98.365 96.800 C 98.521 96.800,99.395 96.440,100.306 96.000 C 101.216 95.560,102.152 95.200,102.386 95.200 C 102.620 95.200,103.123 95.037,103.505 94.839 C 106.506 93.277,117.389 90.606,126.200 89.267 C 129.771 88.725,135.207 88.745,136.818 89.306 M273.323 89.223 C 278.728 90.018,284.997 91.290,288.400 92.281 C 290.270 92.825,292.340 93.420,293.000 93.602 C 296.215 94.490,300.693 96.239,305.702 98.562 C 307.408 99.353,308.911 100.000,309.042 100.000 C 310.265 100.000,323.161 108.168,328.600 112.387 C 338.612 120.155,351.609 133.753,354.626 139.619 C 358.250 146.662,353.050 155.442,345.089 155.720 C 340.517 155.880,337.013 153.717,332.758 148.107 C 318.065 128.736,291.983 113.741,269.278 111.611 C 258.934 110.640,254.006 105.682,255.653 97.900 C 257.213 90.526,262.969 87.700,273.323 89.223 M139.373 123.439 C 164.819 135.899,158.994 201.301,132.561 199.926 C 105.125 198.499,103.373 129.096,130.600 122.244 C 132.526 121.759,137.258 122.404,139.373 123.439 M272.569 123.403 C 291.814 132.507,295.215 177.522,277.967 194.848 C 262.952 209.932,244.284 191.283,244.284 161.200 C 244.284 135.272,258.239 116.624,272.569 123.403 M216.836 217.377 C 229.296 218.859,232.751 221.611,233.108 230.335 C 233.794 247.058,215.925 266.402,199.800 266.393 C 183.218 266.385,164.533 244.733,166.845 228.205 C 167.866 220.903,171.510 218.762,185.800 217.063 C 189.363 216.639,212.614 216.874,216.836 217.377 M38.800 217.600 C 28.305 218.151,18.770 219.443,8.344 221.729 C 6.882 222.049,4.857 222.218,3.844 222.104 L 2.000 221.896 2.000 225.148 C 2.000 227.049,1.834 228.400,1.600 228.400 C 1.340 228.400,1.200 233.733,1.200 243.600 C 1.200 253.467,1.340 258.800,1.600 258.800 C 1.840 258.800,2.000 260.400,2.000 262.800 C 2.000 265.200,2.160 266.800,2.400 266.800 C 2.979 266.800,2.893 268.296,2.300 268.535 C 2.025 268.646,2.194 268.751,2.676 268.768 C 3.158 268.786,3.666 268.616,3.805 268.391 C 5.204 266.128,24.354 255.674,34.200 251.798 C 46.956 246.777,54.458 244.551,67.000 242.062 C 72.844 240.902,75.588 240.478,83.000 239.592 C 88.416 238.944,88.197 239.046,89.193 236.705 C 91.000 232.463,94.176 225.447,94.794 224.334 C 95.355 223.324,94.677 223.000,89.600 221.856 C 73.303 218.182,55.746 216.711,38.800 217.600 M77.800 251.481 C 57.440 254.219,31.591 263.524,15.400 273.944 C 9.680 277.625,9.221 277.795,6.221 277.347 C 3.715 276.972,2.666 277.375,4.000 278.200 C 4.220 278.336,4.400 279.517,4.400 280.824 C 4.400 282.141,4.578 283.200,4.800 283.200 C 5.020 283.200,5.200 283.920,5.200 284.800 C 5.200 285.680,5.380 286.400,5.600 286.400 C 5.820 286.400,6.000 287.019,6.000 287.776 C 6.000 288.533,6.180 289.264,6.400 289.400 C 6.620 289.536,6.800 290.267,6.800 291.024 C 6.800 291.781,6.980 292.400,7.200 292.400 C 7.420 292.400,7.600 292.940,7.600 293.600 C 7.600 294.260,7.780 294.800,8.000 294.800 C 8.220 294.800,8.400 295.340,8.400 296.000 C 8.400 296.660,8.591 297.200,8.824 297.200 C 9.057 297.200,9.147 297.362,9.024 297.561 C 8.677 298.123,12.405 304.964,13.645 306.039 C 14.060 306.399,14.401 306.853,14.402 307.047 C 14.403 307.241,14.943 307.975,15.602 308.678 C 16.261 309.381,16.800 310.146,16.800 310.378 C 16.800 310.610,16.980 310.800,17.200 310.800 C 17.420 310.800,17.600 310.979,17.600 311.198 C 17.600 311.417,18.500 312.515,19.600 313.639 C 20.700 314.762,21.600 315.943,21.600 316.264 C 21.600 316.585,21.780 316.736,22.000 316.600 C 22.220 316.464,22.400 316.528,22.400 316.742 C 22.400 317.264,31.886 326.800,32.404 326.800 C 32.839 326.800,39.600 333.416,39.600 333.842 C 39.600 334.312,51.465 345.600,51.959 345.600 C 52.063 345.600,52.537 345.965,53.012 346.411 C 54.828 348.117,55.336 347.132,55.805 341.000 C 56.120 336.891,56.981 331.162,57.802 327.711 C 59.729 319.615,60.894 314.891,61.183 314.000 C 61.361 313.450,61.697 312.280,61.930 311.400 C 63.083 307.030,68.659 289.898,72.735 278.200 C 76.824 266.465,77.884 263.572,80.258 257.687 C 83.099 250.640,83.147 250.762,77.800 251.481 " stroke="none" fill="#fbcb4b" fill-rule="evenodd"></path><path id="path2" d="M126.600 89.595 C 109.218 92.029,91.989 98.522,78.416 107.755 C 65.796 116.339,48.817 133.075,45.714 139.989 C 43.247 145.486,45.429 151.639,50.725 154.117 C 56.623 156.877,61.399 155.148,66.518 148.400 C 81.576 128.547,108.162 113.153,130.732 111.217 C 140.129 110.411,144.074 107.101,144.098 100.000 C 144.126 91.773,137.821 88.024,126.600 89.595 M263.597 89.545 C 258.416 91.270,256.200 94.403,256.200 100.000 C 256.200 107.443,259.565 110.345,269.193 111.209 C 291.082 113.173,315.739 126.801,330.862 145.294 C 337.875 153.868,339.925 155.369,344.573 155.325 C 353.481 155.241,358.345 145.673,353.313 138.131 C 345.539 126.476,327.853 110.778,313.400 102.702 C 298.555 94.408,270.919 87.106,263.597 89.545 M130.200 122.752 C 112.504 127.427,105.049 165.396,117.410 187.897 C 131.260 213.109,155.367 196.003,155.314 161.000 C 155.278 137.433,143.356 119.276,130.200 122.752 M263.000 122.934 C 242.272 129.826,237.826 178.166,256.346 195.282 C 277.228 214.581,298.515 170.354,284.164 137.484 C 279.350 126.458,270.565 120.418,263.000 122.934 M192.000 284.193 C 182.632 285.299,169.749 290.362,159.900 296.806 C 156.290 299.168,156.365 298.823,158.224 304.600 C 160.165 310.632,163.192 322.077,164.360 327.800 C 165.378 332.789,164.993 332.545,169.959 331.349 C 188.502 326.884,212.164 326.986,231.200 331.613 C 235.261 332.600,235.876 332.755,237.600 333.221 C 238.590 333.488,240.390 334.026,241.600 334.415 C 242.810 334.804,245.010 335.501,246.489 335.963 C 247.968 336.425,252.310 338.133,256.137 339.757 C 262.469 342.444,266.003 344.174,274.209 348.606 C 278.829 351.102,283.203 349.127,283.198 344.547 C 283.196 342.487,283.066 342.227,279.912 337.957 C 278.873 336.550,276.713 333.612,275.112 331.426 C 273.510 329.241,271.570 326.696,270.800 325.772 C 270.030 324.848,268.747 323.306,267.950 322.346 C 244.940 294.645,218.015 281.119,192.000 284.193 " stroke="none" fill="#2e2e34" fill-rule="evenodd"></path><path id="path3" d="M38.400 206.229 C 27.214 206.946,17.598 208.204,9.400 210.022 C 5.062 210.984,4.130 211.079,3.174 210.651 C 2.762 210.467,2.100 210.800,1.231 211.631 L -0.087 212.890 0.066 217.021 C 0.150 219.293,0.353 221.286,0.517 221.450 C 1.213 222.146,5.699 222.309,8.326 221.733 C 31.772 216.595,58.142 215.971,80.600 220.025 C 86.857 221.154,94.119 222.827,94.664 223.266 C 94.920 223.471,95.214 223.495,95.319 223.319 C 96.549 221.255,101.010 212.059,100.628 212.377 C 100.259 212.683,98.458 212.408,94.158 211.387 C 77.743 207.493,53.571 205.256,38.400 206.229 M343.200 206.239 C 338.686 206.422,330.526 207.115,326.800 207.633 C 320.300 208.537,313.321 209.635,311.800 209.993 C 310.920 210.200,308.220 210.835,305.800 211.404 C 290.984 214.890,288.395 216.267,288.403 220.660 C 288.410 224.944,292.061 226.749,297.600 225.208 C 329.680 216.281,363.443 214.819,389.200 221.242 C 395.090 222.711,399.351 222.346,399.752 220.338 C 400.849 214.853,398.152 207.642,396.190 210.816 C 396.048 211.045,395.633 211.138,395.266 211.022 C 394.187 210.682,386.931 209.203,383.433 208.611 C 380.257 208.072,376.739 207.620,369.208 206.780 C 365.249 206.339,349.068 206.003,343.200 206.239 M280.400 238.801 C 275.918 239.233,274.919 239.543,273.827 240.841 C 271.717 243.349,272.122 247.239,274.675 248.973 L 276.120 249.955 288.560 249.718 C 325.899 249.007,358.182 257.201,385.202 274.247 L 390.200 277.400 393.115 277.400 C 396.182 277.400,398.000 276.536,398.000 275.077 C 398.000 274.731,398.180 274.336,398.400 274.200 C 398.891 273.896,398.937 270.800,398.450 270.800 C 398.257 270.800,397.990 270.248,397.855 269.573 C 397.707 268.833,397.437 268.453,397.175 268.615 C 396.936 268.763,396.349 268.527,395.870 268.091 C 394.697 267.022,387.642 262.485,384.313 260.659 C 372.708 254.290,361.629 249.621,350.200 246.279 C 338.050 242.727,328.407 240.800,317.000 239.644 C 314.580 239.398,310.859 239.018,308.732 238.799 C 304.405 238.353,285.035 238.354,280.400 238.801 M84.000 239.410 C 81.910 239.698,78.580 240.140,76.600 240.393 C 57.000 242.898,35.240 250.032,17.427 259.792 C 12.021 262.754,4.262 267.653,3.805 268.391 C 3.666 268.616,3.203 268.800,2.776 268.800 C 2.215 268.800,2.000 269.077,2.000 269.800 C 2.000 270.350,1.820 270.800,1.600 270.800 C 1.079 270.800,1.079 273.478,1.600 273.800 C 1.820 273.936,2.000 274.409,2.000 274.852 C 2.000 276.194,3.084 276.857,6.024 277.312 C 9.235 277.809,9.593 277.681,15.400 273.944 C 30.400 264.291,48.760 257.271,70.600 252.836 C 78.920 251.147,82.276 250.859,82.460 251.817 C 82.546 252.263,83.012 251.551,83.669 249.971 C 84.257 248.557,85.555 245.465,86.554 243.100 C 87.552 240.735,88.241 238.819,88.084 238.843 C 87.928 238.867,86.090 239.122,84.000 239.410 M55.693 341.600 C 55.693 342.370,55.775 342.685,55.876 342.300 C 55.976 341.915,55.976 341.285,55.876 340.900 C 55.775 340.515,55.693 340.830,55.693 341.600 M166.542 345.400 C 166.541 347.380,166.608 348.240,166.692 347.312 C 166.776 346.384,166.777 344.764,166.695 343.712 C 166.612 342.660,166.543 343.420,166.542 345.400 M150.378 383.900 L 149.000 385.400 150.500 384.022 C 151.896 382.738,152.184 382.400,151.878 382.400 C 151.812 382.400,151.137 383.075,150.378 383.900 " stroke="none" fill="#fae3ba" fill-rule="evenodd"></path><path id="path4" d="M127.200 89.164 C 126.430 89.306,128.256 89.417,131.258 89.411 C 134.260 89.405,136.510 89.268,136.258 89.106 C 135.711 88.755,129.187 88.797,127.200 89.164 M263.742 89.106 C 263.490 89.268,265.740 89.408,268.742 89.418 C 272.209 89.429,273.616 89.328,272.600 89.141 C 270.502 88.754,264.328 88.730,263.742 89.106 M119.400 90.393 C 117.640 90.778,115.480 91.231,114.600 91.398 C 113.720 91.566,113.180 91.763,113.400 91.836 C 113.620 91.909,116.410 91.452,119.600 90.819 C 122.790 90.187,124.770 89.674,124.000 89.680 C 123.230 89.687,121.160 90.007,119.400 90.393 M138.798 90.638 C 139.788 91.203,140.823 91.853,141.098 92.082 C 141.374 92.311,141.600 92.395,141.600 92.268 C 141.600 91.890,138.098 89.600,137.528 89.605 C 137.238 89.607,137.809 90.072,138.798 90.638 M260.044 91.004 C 259.078 91.772,258.471 92.400,258.695 92.400 C 258.919 92.400,259.336 92.118,259.623 91.773 C 259.909 91.428,260.786 90.806,261.571 90.391 C 262.357 89.975,262.730 89.629,262.400 89.622 C 262.070 89.614,261.010 90.236,260.044 91.004 M279.200 90.577 C 285.836 91.897,287.026 92.097,286.786 91.856 C 286.472 91.537,276.659 89.595,275.550 89.631 C 275.027 89.648,276.670 90.074,279.200 90.577 M109.678 92.695 C 107.084 93.591,107.921 93.720,110.636 92.843 C 111.936 92.423,112.640 92.085,112.200 92.090 C 111.760 92.096,110.625 92.368,109.678 92.695 M289.364 92.843 C 290.663 93.263,291.802 93.532,291.893 93.440 C 292.074 93.260,287.893 91.975,287.338 92.040 C 287.152 92.062,288.064 92.423,289.364 92.843 M142.123 93.515 C 145.951 97.745,144.278 106.218,139.019 109.234 C 137.909 109.871,137.227 110.394,137.505 110.396 C 140.979 110.422,145.343 103.246,144.634 98.672 C 144.327 96.685,142.523 92.800,141.909 92.800 C 141.671 92.800,141.767 93.122,142.123 93.515 M256.918 94.300 C 252.977 101.425,258.049 111.342,265.550 111.177 C 266.129 111.164,265.416 110.845,263.963 110.466 C 256.739 108.580,253.159 98.728,257.824 93.574 C 258.209 93.148,258.349 92.800,258.136 92.800 C 257.922 92.800,257.374 93.475,256.918 94.300 M294.866 94.592 C 298.535 95.875,299.438 96.140,299.171 95.854 C 298.806 95.462,293.464 93.597,292.802 93.630 C 292.471 93.646,293.400 94.079,294.866 94.592 M103.400 94.800 C 103.108 95.273,103.499 95.273,104.600 94.800 C 105.371 94.469,105.369 94.455,104.524 94.428 C 104.042 94.413,103.536 94.580,103.400 94.800 M100.500 95.834 C 98.604 96.663,98.911 96.850,101.000 96.138 C 101.990 95.801,102.800 95.452,102.800 95.362 C 102.800 95.059,101.805 95.263,100.500 95.834 M301.800 97.215 C 303.120 97.845,304.380 98.354,304.600 98.346 C 304.820 98.338,303.920 97.816,302.600 97.185 C 301.280 96.555,300.020 96.046,299.800 96.054 C 299.580 96.062,300.480 96.584,301.800 97.215 M96.400 97.600 C 94.619 98.575,95.294 98.575,97.400 97.600 C 98.280 97.193,98.730 96.854,98.400 96.846 C 98.070 96.839,97.170 97.178,96.400 97.600 M86.155 102.564 C 65.665 114.260,44.215 135.880,44.336 144.713 C 44.485 155.496,58.011 159.700,64.826 151.081 C 65.557 150.156,66.772 148.635,67.526 147.700 C 68.279 146.765,68.733 146.000,68.534 146.000 C 68.335 146.000,67.878 146.498,67.519 147.107 C 61.548 157.214,50.314 158.128,45.637 148.887 C 42.380 142.452,46.789 135.289,63.624 119.663 C 72.037 111.855,87.744 100.800,90.426 100.800 C 90.606 100.800,90.864 100.620,91.000 100.400 C 91.469 99.641,90.584 100.036,86.155 102.564 M308.833 100.149 C 309.245 100.517,311.600 101.600,311.600 101.421 C 311.600 101.190,309.382 100.000,308.953 100.000 C 308.796 100.000,308.742 100.067,308.833 100.149 M312.000 101.779 C 312.000 101.889,312.540 102.259,313.200 102.600 C 313.860 102.941,314.400 103.131,314.400 103.021 C 314.400 102.911,313.860 102.541,313.200 102.200 C 312.540 101.859,312.000 101.669,312.000 101.779 M315.360 103.694 C 315.778 103.972,317.991 105.417,320.278 106.905 C 332.073 114.579,347.039 128.725,353.313 138.131 C 361.477 150.368,345.189 161.785,335.426 150.669 C 334.233 149.311,332.778 147.660,332.192 147.000 L 331.127 145.800 332.042 147.200 C 334.077 150.314,338.893 154.630,341.000 155.227 C 350.693 157.972,359.109 148.333,354.626 139.619 C 349.915 130.460,326.651 108.921,316.000 103.855 C 315.230 103.488,314.942 103.416,315.360 103.694 M134.800 110.800 L 133.800 111.120 134.800 111.154 C 135.350 111.173,136.070 111.013,136.400 110.800 C 137.164 110.306,136.342 110.306,134.800 110.800 M125.400 111.845 C 110.913 114.440,96.143 121.326,83.678 131.298 C 79.709 134.473,76.800 137.092,76.800 137.492 C 76.800 137.643,77.565 137.035,78.500 136.141 C 91.742 123.477,112.057 113.759,129.400 111.793 C 133.252 111.356,133.476 111.293,131.200 111.283 C 129.770 111.277,127.160 111.530,125.400 111.845 M266.833 111.349 C 266.925 111.431,268.710 111.597,270.800 111.718 C 273.463 111.872,274.062 111.836,272.800 111.598 C 270.990 111.257,266.522 111.071,266.833 111.349 M279.000 113.164 C 298.636 118.331,314.905 128.191,328.761 143.323 C 329.931 144.600,330.979 145.554,331.091 145.442 C 331.497 145.036,319.115 133.169,315.508 130.506 C 302.416 120.844,287.080 113.684,276.400 112.248 C 275.410 112.115,276.580 112.527,279.000 113.164 M130.200 122.372 C 128.680 122.740,126.060 123.979,125.753 124.476 C 125.624 124.684,126.442 124.387,127.569 123.816 C 128.810 123.187,130.761 122.644,132.510 122.440 C 135.009 122.149,135.130 122.102,133.400 122.093 C 132.300 122.087,130.860 122.213,130.200 122.372 M267.504 122.408 C 290.422 125.335,296.834 176.671,276.664 195.753 C 274.818 197.500,274.777 197.572,276.273 196.441 C 297.541 180.356,290.795 123.456,267.470 122.193 L 264.600 122.038 267.504 122.408 M137.000 122.961 C 159.393 130.062,162.060 182.521,140.800 197.722 C 140.250 198.115,140.070 198.310,140.400 198.155 C 153.693 191.904,160.120 161.647,152.584 140.800 C 149.003 130.894,141.468 122.344,136.400 122.435 C 135.626 122.449,135.762 122.568,137.000 122.961 M261.800 122.891 C 255.425 125.163,245.803 139.144,246.033 145.800 C 246.049 146.240,246.383 145.512,246.776 144.181 C 250.112 132.898,256.023 125.166,263.000 122.960 C 263.880 122.681,264.240 122.456,263.800 122.458 C 263.360 122.461,262.460 122.656,261.800 122.891 M122.555 126.878 C 118.027 131.160,112.296 142.554,112.422 147.021 C 112.434 147.449,112.968 146.010,113.609 143.823 C 115.747 136.524,119.569 129.803,123.495 126.438 C 124.543 125.540,125.254 124.804,125.076 124.803 C 124.898 124.801,123.763 125.735,122.555 126.878 M72.459 141.600 C 70.416 143.800,68.828 145.600,68.931 145.600 C 69.182 145.600,74.514 140.080,75.596 138.700 C 77.208 136.643,76.182 137.591,72.459 141.600 M245.431 148.059 C 245.309 148.797,245.007 150.570,244.759 152.000 C 241.771 169.221,248.720 191.809,258.800 197.643 C 259.768 198.204,259.892 198.230,259.200 197.730 C 247.892 189.551,241.934 168.404,245.602 149.461 C 245.851 148.174,245.964 147.031,245.853 146.920 C 245.742 146.809,245.552 147.322,245.431 148.059 M111.987 148.233 C 111.980 148.435,111.714 150.400,111.395 152.600 C 109.323 166.901,112.715 182.891,119.826 192.351 C 121.596 194.705,125.712 198.399,126.565 198.400 C 126.766 198.400,125.956 197.702,124.765 196.848 C 115.109 189.928,109.336 170.219,111.808 152.611 C 112.142 150.230,112.322 148.189,112.208 148.074 C 112.093 147.960,111.994 148.032,111.987 148.233 M272.800 198.400 C 272.030 198.822,271.544 199.174,271.720 199.183 C 272.144 199.205,274.400 198.032,274.400 197.790 C 274.400 197.528,274.377 197.537,272.800 198.400 M129.400 199.600 C 129.840 199.789,130.470 199.944,130.800 199.944 C 131.178 199.944,131.104 199.817,130.600 199.600 C 130.160 199.411,129.530 199.256,129.200 199.256 C 128.822 199.256,128.896 199.383,129.400 199.600 M136.200 199.600 C 135.696 199.817,135.622 199.944,136.000 199.944 C 136.330 199.944,136.960 199.789,137.400 199.600 C 137.904 199.383,137.978 199.256,137.600 199.256 C 137.270 199.256,136.640 199.411,136.200 199.600 M262.600 199.600 C 263.040 199.789,263.670 199.944,264.000 199.944 C 264.378 199.944,264.304 199.817,263.800 199.600 C 263.360 199.411,262.730 199.256,262.400 199.256 C 262.022 199.256,262.096 199.383,262.600 199.600 M269.600 199.600 C 269.067 199.945,269.067 199.988,269.600 199.988 C 269.930 199.988,270.470 199.813,270.800 199.600 C 271.333 199.255,271.333 199.212,270.800 199.212 C 270.470 199.212,269.930 199.387,269.600 199.600 M185.800 217.063 C 174.949 218.353,171.094 219.703,168.650 223.071 C 160.550 234.232,176.033 260.392,193.960 265.833 C 210.542 270.866,233.901 249.685,233.108 230.335 C 232.751 221.611,229.296 218.859,216.836 217.377 C 212.614 216.874,189.363 216.639,185.800 217.063 M192.200 283.639 C 184.964 284.390,166.844 290.863,165.389 293.217 C 165.276 293.400,167.813 292.289,171.026 290.747 C 183.208 284.903,193.543 282.842,205.067 283.959 C 212.447 284.675,216.918 285.705,222.950 288.079 C 226.720 289.562,228.856 290.030,225.704 288.682 C 214.883 284.053,203.997 282.414,192.200 283.639 M227.633 289.741 C 228.183 290.207,233.327 292.847,233.000 292.495 C 232.529 291.989,228.214 289.600,227.771 289.600 C 227.604 289.600,227.542 289.664,227.633 289.741 M163.200 294.433 L 162.200 295.248 163.500 294.614 C 164.215 294.265,164.800 293.894,164.800 293.790 C 164.800 293.392,164.163 293.648,163.200 294.433 M235.200 293.738 C 235.200 293.840,236.595 294.810,238.300 295.894 C 242.163 298.349,242.400 298.487,242.400 298.275 C 242.400 298.181,241.005 297.208,239.300 296.114 C 235.533 293.696,235.200 293.503,235.200 293.738 M158.806 297.023 C 157.379 298.000,156.348 298.800,156.515 298.800 C 156.885 298.800,162.000 295.596,162.000 295.364 C 162.000 294.963,161.228 295.365,158.806 297.023 M243.659 299.263 C 244.241 299.778,246.053 301.231,247.686 302.490 C 252.942 306.546,261.446 314.796,267.088 321.312 C 267.796 322.131,268.490 322.800,268.629 322.800 C 270.469 322.800,249.773 303.001,244.000 299.239 L 242.600 298.327 243.659 299.263 M269.760 324.400 C 270.338 325.170,272.473 328.003,274.505 330.697 C 276.537 333.390,278.920 336.595,279.800 337.820 C 280.680 339.045,281.805 340.603,282.300 341.283 C 286.048 346.429,280.119 351.797,274.209 348.608 C 266.149 344.259,263.339 342.855,258.433 340.728 C 255.481 339.448,252.986 338.480,252.890 338.577 C 252.793 338.674,253.408 339.038,254.257 339.386 C 261.160 342.218,271.111 347.059,272.407 348.214 C 278.474 353.626,287.588 346.497,282.268 340.501 C 281.536 339.676,280.330 338.100,279.590 337.000 C 277.259 333.539,271.753 326.267,270.200 324.600 C 268.839 323.139,268.801 323.122,269.760 324.400 M199.300 327.876 C 199.685 327.976,200.315 327.976,200.700 327.876 C 201.085 327.775,200.770 327.693,200.000 327.693 C 199.230 327.693,198.915 327.775,199.300 327.876 M189.800 328.416 C 188.888 328.588,189.920 328.627,192.200 328.506 C 194.400 328.390,196.275 328.229,196.367 328.147 C 196.658 327.889,191.464 328.101,189.800 328.416 M203.233 328.145 C 203.325 328.225,205.200 328.387,207.400 328.506 C 210.063 328.651,210.865 328.610,209.800 328.385 C 208.234 328.053,202.904 327.859,203.233 328.145 M182.400 329.192 C 181.836 329.369,182.707 329.414,184.400 329.297 C 186.050 329.183,187.475 329.024,187.567 328.945 C 187.887 328.667,183.392 328.882,182.400 329.192 M213.300 329.087 C 213.905 329.178,214.895 329.178,215.500 329.087 C 216.105 328.995,215.610 328.920,214.400 328.920 C 213.190 328.920,212.695 328.995,213.300 329.087 M176.600 330.008 C 176.092 330.231,176.676 330.274,178.200 330.124 C 179.520 329.995,180.675 329.824,180.767 329.744 C 181.121 329.437,177.357 329.675,176.600 330.008 M219.233 329.744 C 219.325 329.824,220.480 329.995,221.800 330.124 C 223.324 330.274,223.908 330.231,223.400 330.008 C 222.643 329.675,218.879 329.437,219.233 329.744 M172.400 330.820 C 171.726 331.049,172.051 331.084,173.400 330.928 C 174.500 330.801,175.475 330.631,175.567 330.549 C 175.882 330.268,173.399 330.480,172.400 330.820 M225.400 330.800 C 226.060 330.968,227.050 331.105,227.600 331.105 C 228.492 331.105,228.470 331.072,227.400 330.800 C 226.740 330.632,225.750 330.495,225.200 330.495 C 224.308 330.495,224.330 330.528,225.400 330.800 M169.000 331.600 C 167.981 332.038,169.032 332.038,170.400 331.600 C 171.204 331.343,171.243 331.277,170.600 331.268 C 170.160 331.262,169.440 331.411,169.000 331.600 M229.400 331.600 C 229.840 331.789,230.560 331.944,231.000 331.944 L 231.800 331.944 231.000 331.600 C 230.560 331.411,229.840 331.256,229.400 331.256 L 228.600 331.256 229.400 331.600 M165.800 332.400 C 165.508 332.873,165.899 332.873,167.000 332.400 C 167.771 332.069,167.769 332.055,166.924 332.028 C 166.442 332.013,165.936 332.180,165.800 332.400 M233.200 332.400 C 233.530 332.613,234.070 332.788,234.400 332.788 C 234.933 332.788,234.933 332.745,234.400 332.400 C 234.070 332.187,233.530 332.012,233.200 332.012 C 232.667 332.012,232.667 332.055,233.200 332.400 M235.633 332.944 C 235.725 333.023,236.340 333.208,237.000 333.356 C 237.876 333.552,238.038 333.515,237.600 333.218 C 237.060 332.853,235.232 332.598,235.633 332.944 M239.000 334.000 C 240.196 334.514,241.195 334.514,240.400 334.000 C 240.070 333.787,239.440 333.622,239.000 333.634 L 238.200 333.656 239.000 334.000 M241.600 334.800 C 241.930 335.013,242.470 335.188,242.800 335.188 C 243.333 335.188,243.333 335.145,242.800 334.800 C 242.470 334.587,241.930 334.412,241.600 334.412 C 241.067 334.412,241.067 334.455,241.600 334.800 M244.200 335.600 C 244.640 335.789,245.270 335.944,245.600 335.944 C 245.978 335.944,245.904 335.817,245.400 335.600 C 244.960 335.411,244.330 335.256,244.000 335.256 C 243.622 335.256,243.696 335.383,244.200 335.600 M247.426 336.565 C 249.444 337.444,250.726 337.659,249.000 336.829 C 248.120 336.406,247.130 336.053,246.800 336.045 C 246.470 336.038,246.752 336.272,247.426 336.565 " stroke="none" fill="#e45c73" fill-rule="evenodd"></path></g></svg>